<svg xmlns="http://www.w3.org/2000/svg" version="1.1" xmlns:xlink="http://www.w3.org/1999/xlink" xmlns:svgjs="http://svgjs.dev/svgjs" width="1500" height="686" viewBox="0 0 1500 686"><g transform="matrix(1,0,0,1,-1.8351063829786654,-1.9508085116278835)"><svg viewBox="0 0 376 172" data-background-color="#ffffff" preserveAspectRatio="xMidYMid meet" height="686" width="1500" xmlns="http://www.w3.org/2000/svg" xmlns:xlink="http://www.w3.org/1999/xlink"><g id="tight-bounds" transform="matrix(1,0,0,1,0.46023999999999887,0.4891239999999897)"><svg viewBox="0 0 375.07953 171.02175200000002" height="171.02175200000002" width="375.07953"><g><svg></svg></g><g><svg viewBox="0 0 375.07953 171.02175200000002" height="171.02175200000002" width="375.07953"><g transform="matrix(1,0,0,1,-10.22024,-44.97193999999999)"><path d="M10.22 202.228v-157.256h375.08v157.256l-12.926 0v-5.555h7.371v-146.146h-363.97v146.146h8.859l0 5.555z" fill="#3277e3" fill-rule="nonzero" stroke="none" stroke-width="1" stroke-linecap="butt" stroke-linejoin="miter" stroke-miterlimit="10" stroke-dasharray="" stroke-dashoffset="0" font-family="none" font-weight="none" font-size="none" text-anchor="none" style="mix-blend-mode: normal" data-fill-palette-color="tertiary"></path><g><path transform="translate(37.38612,215.42812) scale(0.94262,0.94262)" d="M23.55 0h-19.4v-32.7h5.8v27.8h13.6zM117.13 0h-5.8v-32.7h5.8zM217.07 0.6v0c-2.2 0-4.327-0.417-6.38-1.25-2.047-0.833-3.853-2.017-5.42-3.55v0l3.4-3.95c1.167 1.1 2.5 1.99 4 2.67 1.5 0.687 3 1.03 4.5 1.03v0c1.867 0 3.283-0.383 4.25-1.15 0.967-0.767 1.45-1.783 1.45-3.05v0c0-0.667-0.127-1.233-0.38-1.7-0.247-0.467-0.597-0.877-1.05-1.23-0.447-0.347-0.98-0.67-1.6-0.97-0.613-0.3-1.287-0.6-2.02-0.9v0l-4.5-1.95c-0.8-0.333-1.593-0.75-2.38-1.25-0.78-0.5-1.487-1.1-2.12-1.8-0.633-0.7-1.143-1.517-1.53-2.45-0.38-0.933-0.57-2-0.57-3.2v0c0-1.3 0.273-2.51 0.82-3.63 0.553-1.113 1.313-2.087 2.28-2.92 0.967-0.833 2.123-1.483 3.47-1.95 1.353-0.467 2.83-0.7 4.43-0.7v0c1.9 0 3.733 0.373 5.5 1.12 1.767 0.753 3.283 1.763 4.55 3.03v0l-2.95 3.7c-1.067-0.867-2.167-1.55-3.3-2.05-1.133-0.5-2.4-0.75-3.8-0.75v0c-1.567 0-2.817 0.34-3.75 1.02-0.933 0.687-1.4 1.63-1.4 2.83v0c0 0.633 0.14 1.173 0.42 1.62 0.287 0.453 0.67 0.853 1.15 1.2 0.487 0.353 1.047 0.67 1.68 0.95 0.633 0.287 1.283 0.563 1.95 0.83v0l4.45 1.85c0.967 0.4 1.85 0.867 2.65 1.4 0.8 0.533 1.49 1.15 2.07 1.85 0.587 0.7 1.047 1.507 1.38 2.42 0.333 0.92 0.5 1.98 0.5 3.18v0c0 1.333-0.267 2.583-0.8 3.75-0.533 1.167-1.31 2.193-2.33 3.08-1.013 0.88-2.247 1.577-3.7 2.09-1.447 0.52-3.087 0.78-4.92 0.78zM328.25 0h-5.8v-27.8h-9.45v-4.9h24.7v4.9h-9.45z" fill="#ffffff" fill-rule="nonzero" stroke="none" stroke-width="1" stroke-linecap="butt" stroke-linejoin="miter" stroke-miterlimit="10" stroke-dasharray="" stroke-dashoffset="0" font-family="none" font-weight="none" font-size="none" text-anchor="none" style="mix-blend-mode: normal" data-fill-palette-color="secondary" id="text-1"></path></g></g><g transform="matrix(1,0,0,1,29.33176499999999,54.71297922133897)"><svg viewBox="0 0 316.416 61.59579355732208" height="61.59579355732208" width="316.416"><g><svg viewBox="0 0 410.3785229740014 79.88720792079208" height="61.59579355732208" width="316.416"><g transform="matrix(1,0,0,1,93.96252297400142,0)"><svg viewBox="0 0 316.416 79.88720792079208" height="79.88720792079208" width="316.416"><g id="textblocktransform"><svg viewBox="0 0 316.416 79.88720792079208" height="79.88720792079208" width="316.416" id="textblock"><g><svg viewBox="0 0 316.416 79.88720792079208" height="79.88720792079208" width="316.416"><g transform="matrix(1,0,0,1,0,0)"><svg width="316.416" viewBox="1.85 -35.35 141.39000000000001 35.7" height="79.88720792079208" data-palette-color="#ffffff"><path d="M1.85-30.05L1.85-35 29.35-35 29.35-30.05 18.6-30.05 18.6 0 12.65 0 12.65-30.05 1.85-30.05ZM49.8 0.35L49.8 0.35Q46.1 0.35 42.85-0.95 39.6-2.25 37.17-4.63 34.75-7 33.37-10.28 32-13.55 32-17.5L32-17.5Q32-21.4 33.37-24.68 34.75-27.95 37.17-30.35 39.6-32.75 42.85-34.05 46.1-35.35 49.8-35.35L49.8-35.35Q53.5-35.35 56.72-34.05 59.95-32.75 62.37-30.35 64.8-27.95 66.17-24.68 67.55-21.4 67.55-17.5L67.55-17.5Q67.55-13.55 66.17-10.28 64.8-7 62.37-4.63 59.95-2.25 56.72-0.95 53.5 0.35 49.8 0.35ZM49.8-4.7L49.8-4.7Q53.2-4.7 55.85-6.28 58.5-7.85 60-10.73 61.5-13.6 61.5-17.5L61.5-17.5Q61.5-21.45 60-24.3 58.5-27.15 55.85-28.73 53.2-30.3 49.8-30.3L49.8-30.3Q46.4-30.3 43.75-28.73 41.1-27.15 39.57-24.3 38.05-21.45 38.05-17.5L38.05-17.5Q38.05-13.6 39.57-10.73 41.1-7.85 43.75-6.28 46.4-4.7 49.8-4.7ZM73-35L85.5-35Q91.14-35 95.27-32.85 99.39-30.7 101.67-26.73 103.94-22.75 103.94-17.35L103.94-17.35Q103.94-12 101.67-8.1 99.39-4.2 95.27-2.1 91.14 0 85.5 0L85.5 0 73 0 73-35ZM78.94-4.95L85.5-4.95Q91.5-4.95 94.72-8.22 97.94-11.5 97.94-17.35L97.94-17.35Q97.94-23.25 94.72-26.65 91.5-30.05 85.5-30.05L85.5-30.05 78.94-30.05 78.94-4.95ZM125.49 0.35L125.49 0.35Q121.79 0.35 118.54-0.95 115.29-2.25 112.87-4.63 110.44-7 109.07-10.28 107.69-13.55 107.69-17.5L107.69-17.5Q107.69-21.4 109.07-24.68 110.44-27.95 112.87-30.35 115.29-32.75 118.54-34.05 121.79-35.35 125.49-35.35L125.49-35.35Q129.19-35.35 132.42-34.05 135.64-32.75 138.07-30.35 140.49-27.95 141.87-24.68 143.24-21.4 143.24-17.5L143.24-17.5Q143.24-13.55 141.87-10.28 140.49-7 138.07-4.63 135.64-2.25 132.42-0.95 129.19 0.35 125.49 0.35ZM125.49-4.7L125.49-4.7Q128.89-4.7 131.54-6.28 134.19-7.85 135.69-10.73 137.19-13.6 137.19-17.5L137.19-17.5Q137.19-21.45 135.69-24.3 134.19-27.15 131.54-28.73 128.89-30.3 125.49-30.3L125.49-30.3Q122.09-30.3 119.44-28.73 116.79-27.15 115.27-24.3 113.74-21.45 113.74-17.5L113.74-17.5Q113.74-13.6 115.27-10.73 116.79-7.85 119.44-6.28 122.09-4.7 125.49-4.7Z" opacity="1" transform="matrix(1,0,0,1,0,0)" fill="#ffffff" class="wordmark-text-0" data-fill-palette-color="primary" id="text-0"></path></svg></g></svg></g></svg></g></svg></g><g transform="matrix(1,0,0,1,0,4.61428512950495)"><svg viewBox="0 0 75.10307047689251 70.65863766178218" height="70.65863766178218" width="75.10307047689251"><g><svg xmlns="http://www.w3.org/2000/svg" xmlns:xlink="http://www.w3.org/1999/xlink" version="1.1" x="0" y="0" viewBox="5 7.664 90 84.67399999999999" enable-background="new 0 0 100 100" xml:space="preserve" height="70.65863766178218" width="75.10307047689251" class="icon-icon-0" data-fill-palette-color="accent" id="icon-0"><g fill="#3277e3" data-fill-palette-color="accent"><path d="M32.107 24.469A3.4 3.4 0 1 1 25.307 24.473 3.4 3.4 0 0 1 32.107 24.469" fill="#3277e3" data-fill-palette-color="accent"></path><path d="M32.107 36.938A3.396 3.396 0 0 1 28.707 40.336 3.398 3.398 0 1 1 28.707 33.54C30.586 33.54 32.107 35.062 32.107 36.938" fill="#3277e3" data-fill-palette-color="accent"></path><circle cx="28.707" cy="49.408" r="3.4" fill="#3277e3" data-fill-palette-color="accent"></circle><path d="M62.854 27.541H40.041A3.07 3.07 0 0 1 40.041 21.401H62.854A3.07 3.07 0 0 1 65.923 24.469 3.07 3.07 0 0 1 62.854 27.541" fill="#3277e3" data-fill-palette-color="accent"></path><path d="M62.854 40.011H40.041A3.072 3.072 0 0 1 40.041 33.867H62.854C64.55 33.867 65.923 35.243 65.923 36.939S64.551 40.011 62.854 40.011" fill="#3277e3" data-fill-palette-color="accent"></path><path d="M62.854 52.479H40.041A3.072 3.072 0 0 1 40.041 46.337H62.854A3.07 3.07 0 0 1 65.923 49.409 3.07 3.07 0 0 1 62.854 52.479" fill="#3277e3" data-fill-palette-color="accent"></path><circle cx="28.707" cy="61.102" r="3.4" fill="#3277e3" data-fill-palette-color="accent"></circle><path d="M62.854 64.174H40.041A3.072 3.072 0 0 1 40.041 58.033H62.854A3.07 3.07 0 0 1 65.923 61.102 3.07 3.07 0 0 1 62.854 64.174" fill="#3277e3" data-fill-palette-color="accent"></path><path d="M95 22.852C95 11.76 90.904 7.664 85.848 7.664H23.602C18.403 7.664 14.17 11.893 14.17 17.097V76.395H5C5 90.244 10.111 92.338 16.422 92.338H71.024C76.227 92.338 80.458 88.109 80.458 82.905V22.852zM76.683 82.904A5.665 5.665 0 0 1 71.024 88.563C65.972 88.563 63.386 87.485 63.386 76.393H17.945V17.096A5.66 5.66 0 0 1 23.601 11.437H79.173C77.677 13.808 76.745 17.397 76.704 22.519A3 3 0 0 0 76.682 22.852V82.904z" fill="#3277e3" data-fill-palette-color="accent"></path></g></svg></g></svg></g></svg></g></svg></g></svg></g><defs></defs></svg><rect width="375.07953" height="171.02175200000002" fill="none" stroke="none" visibility="hidden"></rect></g></svg></g></svg>