<svg xmlns="http://www.w3.org/2000/svg" version="1.1" xmlns:xlink="http://www.w3.org/1999/xlink" xmlns:svgjs="http://svgjs.dev/svgjs" width="1500" height="613" viewBox="0 0 1500 613"><g transform="matrix(1,0,0,1,-0.9090909090909918,-1.7807064135271844)"><svg viewBox="0 0 396 162" data-background-color="#ffffff" preserveAspectRatio="xMidYMid meet" height="613" width="1500" xmlns="http://www.w3.org/2000/svg" xmlns:xlink="http://www.w3.org/1999/xlink"><g id="tight-bounds" transform="matrix(1,0,0,1,0.2400000000000091,0.4705945171148471)"><svg viewBox="0 0 395.52 161.0588109657703" height="161.0588109657703" width="395.52"><g><svg viewBox="0 0 397.4975999999999 161.86410502059914" height="161.0588109657703" width="395.52"><g></g><g transform="matrix(1,0,0,1,0.9887999999999693,105.56810980242821)"><svg viewBox="0 0 395.52 56.295995218170944" height="56.295995218170944" width="395.52"><g id="textblocktransform"><svg viewBox="0 0 395.52 56.295995218170944" height="56.295995218170944" width="395.52" id="textblock"><g><svg viewBox="0 0 395.52 56.295995218170944" height="56.295995218170944" width="395.52"><g transform="matrix(1,0,0,1,0,0)"><svg width="395.52" viewBox="4 -36.01 326.74 46.51" height="56.295995218170944" data-palette-color="url(#ce143cb6-bd39-496d-a9da-97e9bd995673)"></svg></g></svg></g></svg></g></svg></g><g transform="matrix(1,0,0,1,143.44205180299042,0)"><svg viewBox="0 0 110.61349639401905 73.91101212193664" height="73.91101212193664" width="110.61349639401905"><g><svg xmlns="http://www.w3.org/2000/svg" xmlns:xlink="http://www.w3.org/1999/xlink" version="1.1" x="8" y="0" viewBox="5 14.846 90 70.307" enable-background="new 0 0 100 100" xml:space="preserve" height="73.91101212193664" width="94.61349639401905" class="icon-icon-0" data-fill-palette-color="accent" id="icon-0"></svg></g></svg></g><g></g></svg></g><defs></defs><mask id="e8a8a545-2766-484d-889a-4e4546a6c85a"><g id="SvgjsG1156"><svg viewBox="0 0 395.52 161.0588109657703" height="161.0588109657703" width="395.52"><g><svg viewBox="0 0 397.4975999999999 161.86410502059914" height="161.0588109657703" width="395.52"><g><rect width="397.4975999999999" height="5.076830946241722" x="0" y="87.20114548906156" fill="black" opacity="1" stroke-width="0" stroke="transparent" fill-opacity="1" class="rect-yte-0" rx="1%" id="SvgjsRect1155" data-palette-color="url(#249ab482-ece1-4e9e-939c-9d343fa85f1d)"></rect></g><g transform="matrix(1,0,0,1,0.9887999999999693,105.56810980242821)"><svg viewBox="0 0 395.52 56.295995218170944" height="56.295995218170944" width="395.52"><g id="SvgjsG1154"><svg viewBox="0 0 395.52 56.295995218170944" height="56.295995218170944" width="395.52" id="SvgjsSvg1153"><g><svg viewBox="0 0 395.52 56.295995218170944" height="56.295995218170944" width="395.52"><g transform="matrix(1,0,0,1,0,0)"><svg width="395.52" viewBox="4 -36.01 326.74 46.51" height="56.295995218170944" data-palette-color="url(#ce143cb6-bd39-496d-a9da-97e9bd995673)"><path d="M26.49-14.99L9.5-14.99Q8.47-14.99 7.56-15.39 6.64-15.8 5.96-16.47 5.27-17.14 4.88-18.05 4.49-18.97 4.49-20L4.49-20 4.49-30Q4.49-31.03 4.88-31.95 5.27-32.86 5.96-33.53 6.64-34.2 7.56-34.61 8.47-35.01 9.5-35.01L9.5-35.01 26.49-35.01Q27.51-35.01 28.43-34.61 29.35-34.2 30.03-33.53 30.71-32.86 31.1-31.95 31.49-31.03 31.49-30L31.49-30 31.49-25.49 26.49-25.49 26.49-30 9.5-30 9.5-20 26.49-20Q27.51-20 28.43-19.6 29.35-19.21 30.03-18.53 30.71-17.85 31.1-16.93 31.49-16.02 31.49-14.99L31.49-14.99 31.49-5Q31.49-3.98 31.1-3.06 30.71-2.15 30.03-1.46 29.35-0.78 28.43-0.39 27.51 0 26.49 0L26.49 0 9.01 0Q7.98 0 7.07-0.39 6.15-0.78 5.47-1.46 4.79-2.15 4.39-3.06 4-3.98 4-5L4-5 4-9.5 9.01-9.5 9.01-5 26.49-5 26.49-14.99ZM63.01-21.19L63.01-4.81Q63.01-3.81 62.63-2.93 62.25-2.05 61.61-1.4 60.96-0.76 60.08-0.38 59.2 0 58.2 0L58.2 0 44.8 0 44.8 10.5 40.01 10.5 40.01-26 44.8-26 44.8-21.61Q44.87-22.53 45.29-23.33 45.7-24.12 46.34-24.72 46.97-25.32 47.81-25.66 48.65-26 49.61-26L49.61-26 58.2-26Q59.2-26 60.08-25.62 60.96-25.24 61.61-24.6 62.25-23.95 62.63-23.07 63.01-22.19 63.01-21.19L63.01-21.19ZM44.8-4.81L58.2-4.81 58.2-21.19 44.8-21.19 44.8-4.81ZM93.01-21.19L93.01-10.55 75.8-10.55 75.8-4.81 93.01-4.81 93.01 0 75.8 0Q74.82 0 73.95-0.38 73.07-0.76 72.42-1.4 71.77-2.05 71.39-2.93 71.02-3.81 71.02-4.81L71.02-4.81 71.02-21.19Q71.02-22.19 71.39-23.07 71.77-23.95 72.42-24.6 73.07-25.24 73.95-25.62 74.82-26 75.8-26L75.8-26 88.2-26Q89.2-26 90.08-25.62 90.96-25.24 91.61-24.6 92.26-23.95 92.63-23.07 93.01-22.19 93.01-21.19L93.01-21.19ZM88.2-21.19L75.8-21.19 75.8-15.36 88.2-15.36 88.2-21.19ZM123.01-21.19L123.01-10.55 105.8-10.55 105.8-4.81 123.01-4.81 123.01 0 105.8 0Q104.83 0 103.95-0.38 103.07-0.76 102.42-1.4 101.77-2.05 101.4-2.93 101.02-3.81 101.02-4.81L101.02-4.81 101.02-21.19Q101.02-22.19 101.4-23.07 101.77-23.95 102.42-24.6 103.07-25.24 103.95-25.62 104.83-26 105.8-26L105.8-26 118.21-26Q119.21-26 120.09-25.62 120.96-25.24 121.61-24.6 122.26-23.95 122.64-23.07 123.01-22.19 123.01-21.19L123.01-21.19ZM118.21-21.19L105.8-21.19 105.8-15.36 118.21-15.36 118.21-21.19ZM131.02-4.81L131.02-21.19Q131.02-22.19 131.4-23.07 131.78-23.95 132.42-24.6 133.07-25.24 133.95-25.62 134.83-26 135.81-26L135.81-26 149.21-26 149.21-36.01 154.02-36.01 154.02 0 149.21 0 149.21-4.39Q149.14-3.49 148.72-2.69 148.31-1.88 147.66-1.28 147.01-0.68 146.18-0.34 145.35 0 144.42 0L144.42 0 135.81 0Q134.83 0 133.95-0.38 133.07-0.76 132.42-1.4 131.78-2.05 131.4-2.93 131.02-3.81 131.02-4.81L131.02-4.81ZM135.81-21.19L135.81-4.81 149.21-4.81 149.21-21.19 135.81-21.19ZM184.51-21.19L184.51-4.81Q184.51-3.81 184.13-2.93 183.75-2.05 183.11-1.4 182.46-0.76 181.59-0.38 180.72 0 179.72 0L179.72 0 166.81 0Q165.83 0 164.95-0.38 164.07-0.76 163.43-1.4 162.78-2.05 162.4-2.93 162.02-3.81 162.02-4.81L162.02-4.81 162.02-21.19Q162.02-22.19 162.4-23.07 162.78-23.95 163.43-24.6 164.07-25.24 164.95-25.62 165.83-26 166.81-26L166.81-26 179.72-26Q180.72-26 181.59-25.62 182.46-25.24 183.11-24.6 183.75-23.95 184.13-23.07 184.51-22.19 184.51-21.19L184.51-21.19ZM179.72-21.19L166.81-21.19 166.81-4.81 179.72-4.81 179.72-21.19ZM190-30L190-35.01 218-35.01 218-30 206.5-30 206.5 0 201.5 0 201.5-30 190-30ZM223.76-26L228.57-26 228.57 0 223.76 0 223.76-26ZM223.52-31.01L223.52-36.01 228.82-36.01 228.82-31.01 223.52-31.01ZM268.41-21.19L257.43-21.19 257.43 0 252.62 0 252.62-21.19 241.61-21.19 241.61 0 236.82 0 236.82-26 241.61-26 241.61-21.41Q241.65-22.36 242.05-23.21 242.44-24.05 243.08-24.67 243.73-25.29 244.58-25.65 245.44-26 246.42-26L246.42-26 252.62-26Q253.57-26 254.42-25.65 255.28-25.29 255.94-24.67 256.6-24.05 257-23.21 257.4-22.36 257.43-21.41L257.43-21.41Q257.48-22.36 257.85-23.21 258.23-24.05 258.88-24.67 259.53-25.29 260.38-25.65 261.23-26 262.21-26L262.21-26 268.41-26Q269.41-26 270.29-25.62 271.17-25.24 271.82-24.6 272.47-23.95 272.84-23.07 273.22-22.19 273.22-21.19L273.22-21.19 273.22 0 268.41 0 268.41-21.19ZM303.22-21.19L303.22-10.55 286.01-10.55 286.01-4.81 303.22-4.81 303.22 0 286.01 0Q285.04 0 284.16-0.38 283.28-0.76 282.63-1.4 281.98-2.05 281.61-2.93 281.23-3.81 281.23-4.81L281.23-4.81 281.23-21.19Q281.23-22.19 281.61-23.07 281.98-23.95 282.63-24.6 283.28-25.24 284.16-25.62 285.04-26 286.01-26L286.01-26 298.42-26Q299.42-26 300.29-25.62 301.17-25.24 301.82-24.6 302.47-23.95 302.85-23.07 303.22-22.19 303.22-21.19L303.22-21.19ZM298.42-21.19L286.01-21.19 286.01-15.36 298.42-15.36 298.42-21.19ZM325.93-21.19L316.02-21.19 316.02 0 311.23 0 311.23-26 316.02-26 316.02-21.41Q316.06-22.36 316.45-23.21 316.85-24.05 317.49-24.67 318.14-25.29 318.99-25.65 319.85-26 320.82-26L320.82-26 325.93-26Q326.93-26 327.79-25.62 328.66-25.24 329.32-24.6 329.98-23.95 330.36-23.07 330.74-22.19 330.74-21.19L330.74-21.19 330.74-16.8 325.93-16.8 325.93-21.19Z" opacity="1" transform="matrix(1,0,0,1,0,0)" fill="white" class="wordmark-text-0" id="SvgjsPath1152"></path></svg></g></svg></g></svg></g></svg></g><g transform="matrix(1,0,0,1,143.44205180299042,0)"><svg viewBox="0 0 110.61349639401905 73.91101212193664" height="73.91101212193664" width="110.61349639401905"><g><svg xmlns="http://www.w3.org/2000/svg" xmlns:xlink="http://www.w3.org/1999/xlink" version="1.1" x="8" y="0" viewBox="5 14.846 90 70.307" enable-background="new 0 0 100 100" xml:space="preserve" height="73.91101212193664" width="94.61349639401905" class="icon-icon-0" data-fill-palette-color="accent" id="SvgjsSvg1151"><g fill="black"><path fill="black" d="M58.485 71.817H43.334C42.88 71.817 42.578 72.27 42.578 72.73V76.062C42.578 76.515 42.88 76.97 43.334 76.97H58.485C58.939 76.97 59.393 76.515 59.393 76.062V72.73C59.393 72.27 58.939 71.817 58.485 71.817"></path><path fill-rule="evenodd" clip-rule="evenodd" d="M49.545 53.636C46.363 53.787 43.939 56.365 44.091 59.544 44.242 62.729 46.968 65.152 50.151 64.999 53.333 64.85 55.757 62.276 55.605 59.091 55.605 58.032 55.304 57.123 54.697 56.215L69.242 38.029 52.576 54.242C51.667 53.787 50.757 53.485 49.545 53.636" fill="black"></path><path fill-rule="evenodd" clip-rule="evenodd" d="M58.485 70.151H43.334C41.969 70.151 40.759 71.361 40.759 72.73V76.062C40.759 77.574 41.969 78.638 43.334 78.638H58.485C60.001 78.638 61.061 77.574 61.061 76.062V72.73C61.061 71.361 60 70.151 58.485 70.151M59.393 76.061C59.393 76.514 58.939 76.969 58.485 76.969H43.334C42.88 76.969 42.578 76.514 42.578 76.061V72.73C42.578 72.27 42.88 71.817 43.334 71.817H58.485C58.939 71.817 59.393 72.27 59.393 72.73z" fill="black"></path><path fill-rule="evenodd" clip-rule="evenodd" d="M81.817 28.032C73.332 19.545 61.969 14.846 50 14.846 37.879 14.846 26.667 19.546 18.183 28.032 9.698 36.514 5 47.726 5 59.848 5 68.636 7.576 77.121 12.275 84.547 12.577 84.849 13.031 85.153 13.485 85.153 13.788 85.153 14.09 85 14.241 84.849 15.001 84.547 15.152 83.634 14.699 83.028 13.485 81.06 12.425 79.244 11.514 77.269L15.456 75.606C16.06 75.304 16.514 74.547 16.212 73.789 15.909 73.032 15.001 72.73 14.395 73.032L10.455 74.698C8.79 70.453 7.88 65.907 7.727 61.216H11.971C12.727 61.216 13.333 60.603 13.333 59.848 13.333 59.091 12.728 58.333 11.971 58.333H7.727C7.879 53.787 8.79 49.24 10.456 45.003L14.396 46.515C14.547 46.666 14.699 46.666 14.849 46.666 15.457 46.666 15.91 46.366 16.213 45.758 16.515 45.154 16.061 44.246 15.457 43.937L11.515 42.425C13.334 38.181 15.91 34.396 19.092 30.909L22.123 33.943C22.425 34.245 22.728 34.396 23.186 34.396 23.487 34.396 23.791 34.245 24.095 33.943 24.7 33.337 24.7 32.575 24.095 31.969L21.215 28.942C24.548 25.759 28.334 23.185 32.579 21.364L34.09 25.3C34.394 25.758 34.85 26.06 35.455 26.06H35.909C36.666 25.758 36.971 24.847 36.666 24.243L35.151 20.303C39.392 18.635 43.938 17.729 48.636 17.578V21.82C48.636 22.577 49.242 23.184 50 23.184A1.36 1.36 0 0 0 51.364 21.82V17.578C56.06 17.729 60.605 18.635 64.848 20.303L63.182 24.243C62.88 24.847 63.334 25.758 63.939 26.06H64.545C64.998 26.06 65.606 25.758 65.758 25.3L67.423 21.362C71.515 23.183 75.454 25.758 78.788 28.94L75.908 31.967C75.303 32.573 75.303 33.335 75.908 33.941 76.059 34.243 76.517 34.394 76.819 34.394 77.274 34.394 77.575 34.243 77.88 33.941L80.757 30.907C83.94 34.394 86.516 38.178 88.485 42.423L84.545 43.935C83.788 44.244 83.484 45.152 83.788 45.756 83.94 46.364 84.545 46.664 85.15 46.664 85.304 46.664 85.455 46.664 85.608 46.513L89.546 45.001A44.3 44.3 0 0 1 92.121 58.482H88.032C87.121 58.482 86.516 59.088 86.516 59.846 86.516 60.601 87.121 61.214 88.032 61.214H92.121A44.3 44.3 0 0 1 89.546 74.695L85.608 73.029C84.848 72.727 84.09 73.029 83.788 73.786S83.788 75.301 84.545 75.603L88.485 77.266C87.574 79.241 86.516 81.208 85.305 83.025 84.848 83.631 84.998 84.544 85.608 84.846 86.364 85.301 87.122 85.15 87.575 84.544 92.424 77.121 95 68.636 95 59.848 95 47.726 90.301 36.514 81.817 28.032" fill="black"></path></g></svg></g></svg></g><g><rect width="66.90893180299047" height="5.076830946241722" y="67.83418117569491" x="254.05554819700947" fill="black"></rect><rect width="66.90893180299047" height="5.076830946241722" y="67.83418117569491" x="76.53311999999997" fill="black"></rect></g></svg></g><defs><mask></mask></defs></svg><rect width="395.52" height="161.0588109657703" fill="black" stroke="none" visibility="hidden"></rect></g></mask><linearGradient x1="0.054" x2="0.941" y1="0.5" y2="0.5" id="ce143cb6-bd39-496d-a9da-97e9bd995673"><stop stop-color="#864d25" offset="0"></stop><stop stop-color="#f1c4b3" offset="0.498"></stop><stop stop-color="#864d25" offset="1"></stop></linearGradient><rect width="395.52" height="161.0588109657703" fill="url(#ce143cb6-bd39-496d-a9da-97e9bd995673)" mask="url(#e8a8a545-2766-484d-889a-4e4546a6c85a)" data-fill-palette-color="primary"></rect><mask id="720d0b1d-6e42-4234-815f-eb9da616cb3a"><g id="SvgjsG1167"><svg viewBox="0 0 395.52 161.0588109657703" height="161.0588109657703" width="395.52"><g><svg viewBox="0 0 397.4975999999999 161.86410502059914" height="161.0588109657703" width="395.52"><g><rect width="397.4975999999999" height="5.076830946241722" x="0" y="87.20114548906156" fill="white" opacity="1" stroke-width="0" stroke="transparent" fill-opacity="1" class="rect-yte-0" rx="1%" id="SvgjsRect1166" data-palette-color="url(#249ab482-ece1-4e9e-939c-9d343fa85f1d)"></rect></g><g transform="matrix(1,0,0,1,0.9887999999999693,105.56810980242821)"><svg viewBox="0 0 395.52 56.295995218170944" height="56.295995218170944" width="395.52"><g id="SvgjsG1165"><svg viewBox="0 0 395.52 56.295995218170944" height="56.295995218170944" width="395.52" id="SvgjsSvg1164"><g><svg viewBox="0 0 395.52 56.295995218170944" height="56.295995218170944" width="395.52"><g transform="matrix(1,0,0,1,0,0)"><svg width="395.52" viewBox="4 -36.01 326.74 46.51" height="56.295995218170944" data-palette-color="url(#ce143cb6-bd39-496d-a9da-97e9bd995673)"></svg></g></svg></g></svg></g></svg></g><g transform="matrix(1,0,0,1,143.44205180299042,0)"><svg viewBox="0 0 110.61349639401905 73.91101212193664" height="73.91101212193664" width="110.61349639401905"><g><svg xmlns="http://www.w3.org/2000/svg" xmlns:xlink="http://www.w3.org/1999/xlink" version="1.1" x="8" y="0" viewBox="5 14.846 90 70.307" enable-background="new 0 0 100 100" xml:space="preserve" height="73.91101212193664" width="94.61349639401905" class="icon-icon-0" data-fill-palette-color="accent" id="SvgjsSvg1163"><g fill="black"><path fill="black" d="M58.485 71.817H43.334C42.88 71.817 42.578 72.27 42.578 72.73V76.062C42.578 76.515 42.88 76.97 43.334 76.97H58.485C58.939 76.97 59.393 76.515 59.393 76.062V72.73C59.393 72.27 58.939 71.817 58.485 71.817"></path><path fill-rule="evenodd" clip-rule="evenodd" d="M49.545 53.636C46.363 53.787 43.939 56.365 44.091 59.544 44.242 62.729 46.968 65.152 50.151 64.999 53.333 64.85 55.757 62.276 55.605 59.091 55.605 58.032 55.304 57.123 54.697 56.215L69.242 38.029 52.576 54.242C51.667 53.787 50.757 53.485 49.545 53.636" fill="black"></path><path fill-rule="evenodd" clip-rule="evenodd" d="M58.485 70.151H43.334C41.969 70.151 40.759 71.361 40.759 72.73V76.062C40.759 77.574 41.969 78.638 43.334 78.638H58.485C60.001 78.638 61.061 77.574 61.061 76.062V72.73C61.061 71.361 60 70.151 58.485 70.151M59.393 76.061C59.393 76.514 58.939 76.969 58.485 76.969H43.334C42.88 76.969 42.578 76.514 42.578 76.061V72.73C42.578 72.27 42.88 71.817 43.334 71.817H58.485C58.939 71.817 59.393 72.27 59.393 72.73z" fill="black"></path><path fill-rule="evenodd" clip-rule="evenodd" d="M81.817 28.032C73.332 19.545 61.969 14.846 50 14.846 37.879 14.846 26.667 19.546 18.183 28.032 9.698 36.514 5 47.726 5 59.848 5 68.636 7.576 77.121 12.275 84.547 12.577 84.849 13.031 85.153 13.485 85.153 13.788 85.153 14.09 85 14.241 84.849 15.001 84.547 15.152 83.634 14.699 83.028 13.485 81.06 12.425 79.244 11.514 77.269L15.456 75.606C16.06 75.304 16.514 74.547 16.212 73.789 15.909 73.032 15.001 72.73 14.395 73.032L10.455 74.698C8.79 70.453 7.88 65.907 7.727 61.216H11.971C12.727 61.216 13.333 60.603 13.333 59.848 13.333 59.091 12.728 58.333 11.971 58.333H7.727C7.879 53.787 8.79 49.24 10.456 45.003L14.396 46.515C14.547 46.666 14.699 46.666 14.849 46.666 15.457 46.666 15.91 46.366 16.213 45.758 16.515 45.154 16.061 44.246 15.457 43.937L11.515 42.425C13.334 38.181 15.91 34.396 19.092 30.909L22.123 33.943C22.425 34.245 22.728 34.396 23.186 34.396 23.487 34.396 23.791 34.245 24.095 33.943 24.7 33.337 24.7 32.575 24.095 31.969L21.215 28.942C24.548 25.759 28.334 23.185 32.579 21.364L34.09 25.3C34.394 25.758 34.85 26.06 35.455 26.06H35.909C36.666 25.758 36.971 24.847 36.666 24.243L35.151 20.303C39.392 18.635 43.938 17.729 48.636 17.578V21.82C48.636 22.577 49.242 23.184 50 23.184A1.36 1.36 0 0 0 51.364 21.82V17.578C56.06 17.729 60.605 18.635 64.848 20.303L63.182 24.243C62.88 24.847 63.334 25.758 63.939 26.06H64.545C64.998 26.06 65.606 25.758 65.758 25.3L67.423 21.362C71.515 23.183 75.454 25.758 78.788 28.94L75.908 31.967C75.303 32.573 75.303 33.335 75.908 33.941 76.059 34.243 76.517 34.394 76.819 34.394 77.274 34.394 77.575 34.243 77.88 33.941L80.757 30.907C83.94 34.394 86.516 38.178 88.485 42.423L84.545 43.935C83.788 44.244 83.484 45.152 83.788 45.756 83.94 46.364 84.545 46.664 85.15 46.664 85.304 46.664 85.455 46.664 85.608 46.513L89.546 45.001A44.3 44.3 0 0 1 92.121 58.482H88.032C87.121 58.482 86.516 59.088 86.516 59.846 86.516 60.601 87.121 61.214 88.032 61.214H92.121A44.3 44.3 0 0 1 89.546 74.695L85.608 73.029C84.848 72.727 84.09 73.029 83.788 73.786S83.788 75.301 84.545 75.603L88.485 77.266C87.574 79.241 86.516 81.208 85.305 83.025 84.848 83.631 84.998 84.544 85.608 84.846 86.364 85.301 87.122 85.15 87.575 84.544 92.424 77.121 95 68.636 95 59.848 95 47.726 90.301 36.514 81.817 28.032" fill="black"></path></g></svg></g></svg></g><g><rect width="66.90893180299047" height="5.076830946241722" y="67.83418117569491" x="254.05554819700947" fill="white"></rect><rect width="66.90893180299047" height="5.076830946241722" y="67.83418117569491" x="76.53311999999997" fill="white"></rect></g></svg></g><defs><mask></mask></defs><mask><g id="SvgjsG1162"><svg viewBox="0 0 395.52 161.0588109657703" height="161.0588109657703" width="395.52"><g><svg viewBox="0 0 397.4975999999999 161.86410502059914" height="161.0588109657703" width="395.52"><g><rect width="397.4975999999999" height="5.076830946241722" x="0" y="87.20114548906156" fill="black" opacity="1" stroke-width="0" stroke="transparent" fill-opacity="1" class="rect-yte-0" rx="1%" id="SvgjsRect1161" data-palette-color="url(#249ab482-ece1-4e9e-939c-9d343fa85f1d)"></rect></g><g transform="matrix(1,0,0,1,0.9887999999999693,105.56810980242821)"><svg viewBox="0 0 395.52 56.295995218170944" height="56.295995218170944" width="395.52"><g id="SvgjsG1160"><svg viewBox="0 0 395.52 56.295995218170944" height="56.295995218170944" width="395.52" id="SvgjsSvg1159"><g><svg viewBox="0 0 395.52 56.295995218170944" height="56.295995218170944" width="395.52"><g transform="matrix(1,0,0,1,0,0)"><svg width="395.52" viewBox="4 -36.01 326.74 46.51" height="56.295995218170944" data-palette-color="url(#ce143cb6-bd39-496d-a9da-97e9bd995673)"><path d="M26.49-14.99L9.5-14.99Q8.47-14.99 7.56-15.39 6.64-15.8 5.96-16.47 5.27-17.14 4.88-18.05 4.49-18.97 4.49-20L4.49-20 4.49-30Q4.49-31.03 4.88-31.95 5.27-32.86 5.96-33.53 6.64-34.2 7.56-34.61 8.47-35.01 9.5-35.01L9.5-35.01 26.49-35.01Q27.51-35.01 28.43-34.61 29.35-34.2 30.03-33.53 30.71-32.86 31.1-31.95 31.49-31.03 31.49-30L31.49-30 31.49-25.49 26.49-25.49 26.49-30 9.5-30 9.5-20 26.49-20Q27.51-20 28.43-19.6 29.35-19.21 30.03-18.53 30.71-17.85 31.1-16.93 31.49-16.02 31.49-14.99L31.49-14.99 31.49-5Q31.49-3.98 31.1-3.06 30.71-2.15 30.03-1.46 29.35-0.78 28.43-0.39 27.51 0 26.49 0L26.49 0 9.01 0Q7.98 0 7.07-0.39 6.15-0.78 5.47-1.46 4.79-2.15 4.39-3.06 4-3.98 4-5L4-5 4-9.5 9.01-9.5 9.01-5 26.49-5 26.49-14.99ZM63.01-21.19L63.01-4.81Q63.01-3.81 62.63-2.93 62.25-2.05 61.61-1.4 60.96-0.76 60.08-0.38 59.2 0 58.2 0L58.2 0 44.8 0 44.8 10.5 40.01 10.5 40.01-26 44.8-26 44.8-21.61Q44.87-22.53 45.29-23.33 45.7-24.12 46.34-24.72 46.97-25.32 47.81-25.66 48.65-26 49.61-26L49.61-26 58.2-26Q59.2-26 60.08-25.62 60.96-25.24 61.61-24.6 62.25-23.95 62.63-23.07 63.01-22.19 63.01-21.19L63.01-21.19ZM44.8-4.81L58.2-4.81 58.2-21.19 44.8-21.19 44.8-4.81ZM93.01-21.19L93.01-10.55 75.8-10.55 75.8-4.81 93.01-4.81 93.01 0 75.8 0Q74.82 0 73.95-0.38 73.07-0.76 72.42-1.4 71.77-2.05 71.39-2.93 71.02-3.81 71.02-4.81L71.02-4.81 71.02-21.19Q71.02-22.19 71.39-23.07 71.77-23.95 72.42-24.6 73.07-25.24 73.95-25.62 74.82-26 75.8-26L75.8-26 88.2-26Q89.2-26 90.08-25.62 90.96-25.24 91.61-24.6 92.26-23.95 92.63-23.07 93.01-22.19 93.01-21.19L93.01-21.19ZM88.2-21.19L75.8-21.19 75.8-15.36 88.2-15.36 88.2-21.19ZM123.01-21.19L123.01-10.55 105.8-10.55 105.8-4.81 123.01-4.81 123.01 0 105.8 0Q104.83 0 103.95-0.38 103.07-0.76 102.42-1.4 101.77-2.05 101.4-2.93 101.02-3.81 101.02-4.81L101.02-4.81 101.02-21.19Q101.02-22.19 101.4-23.07 101.77-23.95 102.42-24.6 103.07-25.24 103.95-25.62 104.83-26 105.8-26L105.8-26 118.21-26Q119.21-26 120.09-25.62 120.96-25.24 121.61-24.6 122.26-23.95 122.64-23.07 123.01-22.19 123.01-21.19L123.01-21.19ZM118.21-21.19L105.8-21.19 105.8-15.36 118.21-15.36 118.21-21.19ZM131.02-4.81L131.02-21.19Q131.02-22.19 131.4-23.07 131.78-23.95 132.42-24.6 133.07-25.24 133.95-25.62 134.83-26 135.81-26L135.81-26 149.21-26 149.21-36.01 154.02-36.01 154.02 0 149.21 0 149.21-4.39Q149.14-3.49 148.72-2.69 148.31-1.88 147.66-1.28 147.01-0.68 146.18-0.34 145.35 0 144.42 0L144.42 0 135.81 0Q134.83 0 133.95-0.38 133.07-0.76 132.42-1.4 131.78-2.05 131.4-2.93 131.02-3.81 131.02-4.81L131.02-4.81ZM135.81-21.19L135.81-4.81 149.21-4.81 149.21-21.19 135.81-21.19ZM184.51-21.19L184.51-4.81Q184.51-3.81 184.13-2.93 183.75-2.05 183.11-1.4 182.46-0.76 181.59-0.38 180.72 0 179.72 0L179.72 0 166.81 0Q165.83 0 164.95-0.38 164.07-0.76 163.43-1.4 162.78-2.05 162.4-2.93 162.02-3.81 162.02-4.81L162.02-4.81 162.02-21.19Q162.02-22.19 162.4-23.07 162.78-23.95 163.43-24.6 164.07-25.24 164.95-25.62 165.83-26 166.81-26L166.81-26 179.72-26Q180.72-26 181.59-25.62 182.46-25.24 183.11-24.6 183.75-23.95 184.13-23.07 184.51-22.19 184.51-21.19L184.51-21.19ZM179.72-21.19L166.81-21.19 166.81-4.81 179.72-4.81 179.72-21.19ZM190-30L190-35.01 218-35.01 218-30 206.5-30 206.5 0 201.5 0 201.5-30 190-30ZM223.76-26L228.57-26 228.57 0 223.76 0 223.76-26ZM223.52-31.01L223.52-36.01 228.82-36.01 228.82-31.01 223.52-31.01ZM268.41-21.19L257.43-21.19 257.43 0 252.62 0 252.62-21.19 241.61-21.19 241.61 0 236.82 0 236.82-26 241.61-26 241.61-21.41Q241.65-22.36 242.05-23.21 242.44-24.05 243.08-24.67 243.73-25.29 244.58-25.65 245.44-26 246.42-26L246.42-26 252.62-26Q253.57-26 254.42-25.65 255.28-25.29 255.94-24.67 256.6-24.05 257-23.21 257.4-22.36 257.43-21.41L257.43-21.41Q257.48-22.36 257.85-23.21 258.23-24.05 258.88-24.67 259.53-25.29 260.38-25.65 261.23-26 262.21-26L262.21-26 268.41-26Q269.41-26 270.29-25.62 271.17-25.24 271.82-24.6 272.47-23.95 272.84-23.07 273.22-22.19 273.22-21.19L273.22-21.19 273.22 0 268.41 0 268.41-21.19ZM303.22-21.19L303.22-10.55 286.01-10.55 286.01-4.81 303.22-4.81 303.22 0 286.01 0Q285.04 0 284.16-0.38 283.28-0.76 282.63-1.4 281.98-2.05 281.61-2.93 281.23-3.81 281.23-4.81L281.23-4.81 281.23-21.19Q281.23-22.19 281.61-23.07 281.98-23.95 282.63-24.6 283.28-25.24 284.16-25.62 285.04-26 286.01-26L286.01-26 298.42-26Q299.42-26 300.29-25.62 301.17-25.24 301.82-24.6 302.47-23.95 302.85-23.07 303.22-22.19 303.22-21.19L303.22-21.19ZM298.42-21.19L286.01-21.19 286.01-15.36 298.42-15.36 298.42-21.19ZM325.93-21.19L316.02-21.19 316.02 0 311.23 0 311.23-26 316.02-26 316.02-21.41Q316.06-22.36 316.45-23.21 316.85-24.05 317.49-24.67 318.14-25.29 318.99-25.65 319.85-26 320.82-26L320.82-26 325.93-26Q326.93-26 327.79-25.62 328.66-25.24 329.32-24.6 329.98-23.95 330.36-23.07 330.74-22.19 330.74-21.19L330.74-21.19 330.74-16.8 325.93-16.8 325.93-21.19Z" opacity="1" transform="matrix(1,0,0,1,0,0)" fill="black" class="wordmark-text-0" id="SvgjsPath1158"></path></svg></g></svg></g></svg></g></svg></g><g transform="matrix(1,0,0,1,143.44205180299042,0)"><svg viewBox="0 0 110.61349639401905 73.91101212193664" height="73.91101212193664" width="110.61349639401905"><g><svg xmlns="http://www.w3.org/2000/svg" xmlns:xlink="http://www.w3.org/1999/xlink" version="1.1" x="8" y="0" viewBox="5 14.846 90 70.307" enable-background="new 0 0 100 100" xml:space="preserve" height="73.91101212193664" width="94.61349639401905" class="icon-icon-0" data-fill-palette-color="accent" id="SvgjsSvg1157"><g fill="black"><path fill="black" d="M58.485 71.817H43.334C42.88 71.817 42.578 72.27 42.578 72.73V76.062C42.578 76.515 42.88 76.97 43.334 76.97H58.485C58.939 76.97 59.393 76.515 59.393 76.062V72.73C59.393 72.27 58.939 71.817 58.485 71.817"></path><path fill-rule="evenodd" clip-rule="evenodd" d="M49.545 53.636C46.363 53.787 43.939 56.365 44.091 59.544 44.242 62.729 46.968 65.152 50.151 64.999 53.333 64.85 55.757 62.276 55.605 59.091 55.605 58.032 55.304 57.123 54.697 56.215L69.242 38.029 52.576 54.242C51.667 53.787 50.757 53.485 49.545 53.636" fill="black"></path><path fill-rule="evenodd" clip-rule="evenodd" d="M58.485 70.151H43.334C41.969 70.151 40.759 71.361 40.759 72.73V76.062C40.759 77.574 41.969 78.638 43.334 78.638H58.485C60.001 78.638 61.061 77.574 61.061 76.062V72.73C61.061 71.361 60 70.151 58.485 70.151M59.393 76.061C59.393 76.514 58.939 76.969 58.485 76.969H43.334C42.88 76.969 42.578 76.514 42.578 76.061V72.73C42.578 72.27 42.88 71.817 43.334 71.817H58.485C58.939 71.817 59.393 72.27 59.393 72.73z" fill="black"></path><path fill-rule="evenodd" clip-rule="evenodd" d="M81.817 28.032C73.332 19.545 61.969 14.846 50 14.846 37.879 14.846 26.667 19.546 18.183 28.032 9.698 36.514 5 47.726 5 59.848 5 68.636 7.576 77.121 12.275 84.547 12.577 84.849 13.031 85.153 13.485 85.153 13.788 85.153 14.09 85 14.241 84.849 15.001 84.547 15.152 83.634 14.699 83.028 13.485 81.06 12.425 79.244 11.514 77.269L15.456 75.606C16.06 75.304 16.514 74.547 16.212 73.789 15.909 73.032 15.001 72.73 14.395 73.032L10.455 74.698C8.79 70.453 7.88 65.907 7.727 61.216H11.971C12.727 61.216 13.333 60.603 13.333 59.848 13.333 59.091 12.728 58.333 11.971 58.333H7.727C7.879 53.787 8.79 49.24 10.456 45.003L14.396 46.515C14.547 46.666 14.699 46.666 14.849 46.666 15.457 46.666 15.91 46.366 16.213 45.758 16.515 45.154 16.061 44.246 15.457 43.937L11.515 42.425C13.334 38.181 15.91 34.396 19.092 30.909L22.123 33.943C22.425 34.245 22.728 34.396 23.186 34.396 23.487 34.396 23.791 34.245 24.095 33.943 24.7 33.337 24.7 32.575 24.095 31.969L21.215 28.942C24.548 25.759 28.334 23.185 32.579 21.364L34.09 25.3C34.394 25.758 34.85 26.06 35.455 26.06H35.909C36.666 25.758 36.971 24.847 36.666 24.243L35.151 20.303C39.392 18.635 43.938 17.729 48.636 17.578V21.82C48.636 22.577 49.242 23.184 50 23.184A1.36 1.36 0 0 0 51.364 21.82V17.578C56.06 17.729 60.605 18.635 64.848 20.303L63.182 24.243C62.88 24.847 63.334 25.758 63.939 26.06H64.545C64.998 26.06 65.606 25.758 65.758 25.3L67.423 21.362C71.515 23.183 75.454 25.758 78.788 28.94L75.908 31.967C75.303 32.573 75.303 33.335 75.908 33.941 76.059 34.243 76.517 34.394 76.819 34.394 77.274 34.394 77.575 34.243 77.88 33.941L80.757 30.907C83.94 34.394 86.516 38.178 88.485 42.423L84.545 43.935C83.788 44.244 83.484 45.152 83.788 45.756 83.94 46.364 84.545 46.664 85.15 46.664 85.304 46.664 85.455 46.664 85.608 46.513L89.546 45.001A44.3 44.3 0 0 1 92.121 58.482H88.032C87.121 58.482 86.516 59.088 86.516 59.846 86.516 60.601 87.121 61.214 88.032 61.214H92.121A44.3 44.3 0 0 1 89.546 74.695L85.608 73.029C84.848 72.727 84.09 73.029 83.788 73.786S83.788 75.301 84.545 75.603L88.485 77.266C87.574 79.241 86.516 81.208 85.305 83.025 84.848 83.631 84.998 84.544 85.608 84.846 86.364 85.301 87.122 85.15 87.575 84.544 92.424 77.121 95 68.636 95 59.848 95 47.726 90.301 36.514 81.817 28.032" fill="black"></path></g></svg></g></svg></g><g><rect width="66.90893180299047" height="5.076830946241722" y="67.83418117569491" x="254.05554819700947" fill="black"></rect><rect width="66.90893180299047" height="5.076830946241722" y="67.83418117569491" x="76.53311999999997" fill="black"></rect></g></svg></g><defs><mask></mask></defs></svg><rect width="395.52" height="161.0588109657703" fill="black" stroke="none" visibility="hidden"></rect></g></mask></svg><rect width="395.52" height="161.0588109657703" fill="black" stroke="none" visibility="hidden"></rect></g></mask><linearGradient x1="0.054" x2="0.941" y1="0.5" y2="0.5" id="249ab482-ece1-4e9e-939c-9d343fa85f1d"><stop stop-color="#864d25" offset="0"></stop><stop stop-color="#f1c4b3" offset="0.498"></stop><stop stop-color="#864d25" offset="1"></stop></linearGradient><rect width="395.52" height="161.0588109657703" fill="url(#249ab482-ece1-4e9e-939c-9d343fa85f1d)" mask="url(#720d0b1d-6e42-4234-815f-eb9da616cb3a)" data-fill-palette-color="secondary"></rect><mask id="69e19ae1-7f7f-4dae-9ce8-0a6d8067d12b"><g id="SvgjsG1188"><svg viewBox="0 0 395.52 161.0588109657703" height="161.0588109657703" width="395.52"><g><svg viewBox="0 0 397.4975999999999 161.86410502059914" height="161.0588109657703" width="395.52"><g></g><g transform="matrix(1,0,0,1,0.9887999999999693,105.56810980242821)"><svg viewBox="0 0 395.52 56.295995218170944" height="56.295995218170944" width="395.52"><g id="SvgjsG1187"><svg viewBox="0 0 395.52 56.295995218170944" height="56.295995218170944" width="395.52" id="SvgjsSvg1186"><g><svg viewBox="0 0 395.52 56.295995218170944" height="56.295995218170944" width="395.52"><g transform="matrix(1,0,0,1,0,0)"><svg width="395.52" viewBox="4 -36.01 326.74 46.51" height="56.295995218170944" data-palette-color="url(#ce143cb6-bd39-496d-a9da-97e9bd995673)"></svg></g></svg></g></svg></g></svg></g><g transform="matrix(1,0,0,1,143.44205180299042,0)"><svg viewBox="0 0 110.61349639401905 73.91101212193664" height="73.91101212193664" width="110.61349639401905"><g><svg xmlns="http://www.w3.org/2000/svg" xmlns:xlink="http://www.w3.org/1999/xlink" version="1.1" x="8" y="0" viewBox="5 14.846 90 70.307" enable-background="new 0 0 100 100" xml:space="preserve" height="73.91101212193664" width="94.61349639401905" class="icon-icon-0" data-fill-palette-color="accent" id="SvgjsSvg1185"><g fill="white"><path fill="black" d="M58.485 71.817H43.334C42.88 71.817 42.578 72.27 42.578 72.73V76.062C42.578 76.515 42.88 76.97 43.334 76.97H58.485C58.939 76.97 59.393 76.515 59.393 76.062V72.73C59.393 72.27 58.939 71.817 58.485 71.817"></path><path fill-rule="evenodd" clip-rule="evenodd" d="M49.545 53.636C46.363 53.787 43.939 56.365 44.091 59.544 44.242 62.729 46.968 65.152 50.151 64.999 53.333 64.85 55.757 62.276 55.605 59.091 55.605 58.032 55.304 57.123 54.697 56.215L69.242 38.029 52.576 54.242C51.667 53.787 50.757 53.485 49.545 53.636" fill="white"></path><path fill-rule="evenodd" clip-rule="evenodd" d="M58.485 70.151H43.334C41.969 70.151 40.759 71.361 40.759 72.73V76.062C40.759 77.574 41.969 78.638 43.334 78.638H58.485C60.001 78.638 61.061 77.574 61.061 76.062V72.73C61.061 71.361 60 70.151 58.485 70.151M59.393 76.061C59.393 76.514 58.939 76.969 58.485 76.969H43.334C42.88 76.969 42.578 76.514 42.578 76.061V72.73C42.578 72.27 42.88 71.817 43.334 71.817H58.485C58.939 71.817 59.393 72.27 59.393 72.73z" fill="white"></path><path fill-rule="evenodd" clip-rule="evenodd" d="M81.817 28.032C73.332 19.545 61.969 14.846 50 14.846 37.879 14.846 26.667 19.546 18.183 28.032 9.698 36.514 5 47.726 5 59.848 5 68.636 7.576 77.121 12.275 84.547 12.577 84.849 13.031 85.153 13.485 85.153 13.788 85.153 14.09 85 14.241 84.849 15.001 84.547 15.152 83.634 14.699 83.028 13.485 81.06 12.425 79.244 11.514 77.269L15.456 75.606C16.06 75.304 16.514 74.547 16.212 73.789 15.909 73.032 15.001 72.73 14.395 73.032L10.455 74.698C8.79 70.453 7.88 65.907 7.727 61.216H11.971C12.727 61.216 13.333 60.603 13.333 59.848 13.333 59.091 12.728 58.333 11.971 58.333H7.727C7.879 53.787 8.79 49.24 10.456 45.003L14.396 46.515C14.547 46.666 14.699 46.666 14.849 46.666 15.457 46.666 15.91 46.366 16.213 45.758 16.515 45.154 16.061 44.246 15.457 43.937L11.515 42.425C13.334 38.181 15.91 34.396 19.092 30.909L22.123 33.943C22.425 34.245 22.728 34.396 23.186 34.396 23.487 34.396 23.791 34.245 24.095 33.943 24.7 33.337 24.7 32.575 24.095 31.969L21.215 28.942C24.548 25.759 28.334 23.185 32.579 21.364L34.09 25.3C34.394 25.758 34.85 26.06 35.455 26.06H35.909C36.666 25.758 36.971 24.847 36.666 24.243L35.151 20.303C39.392 18.635 43.938 17.729 48.636 17.578V21.82C48.636 22.577 49.242 23.184 50 23.184A1.36 1.36 0 0 0 51.364 21.82V17.578C56.06 17.729 60.605 18.635 64.848 20.303L63.182 24.243C62.88 24.847 63.334 25.758 63.939 26.06H64.545C64.998 26.06 65.606 25.758 65.758 25.3L67.423 21.362C71.515 23.183 75.454 25.758 78.788 28.94L75.908 31.967C75.303 32.573 75.303 33.335 75.908 33.941 76.059 34.243 76.517 34.394 76.819 34.394 77.274 34.394 77.575 34.243 77.88 33.941L80.757 30.907C83.94 34.394 86.516 38.178 88.485 42.423L84.545 43.935C83.788 44.244 83.484 45.152 83.788 45.756 83.94 46.364 84.545 46.664 85.15 46.664 85.304 46.664 85.455 46.664 85.608 46.513L89.546 45.001A44.3 44.3 0 0 1 92.121 58.482H88.032C87.121 58.482 86.516 59.088 86.516 59.846 86.516 60.601 87.121 61.214 88.032 61.214H92.121A44.3 44.3 0 0 1 89.546 74.695L85.608 73.029C84.848 72.727 84.09 73.029 83.788 73.786S83.788 75.301 84.545 75.603L88.485 77.266C87.574 79.241 86.516 81.208 85.305 83.025 84.848 83.631 84.998 84.544 85.608 84.846 86.364 85.301 87.122 85.15 87.575 84.544 92.424 77.121 95 68.636 95 59.848 95 47.726 90.301 36.514 81.817 28.032" fill="white"></path></g></svg></g></svg></g><g></g></svg></g><defs><mask></mask></defs><mask><g id="SvgjsG1184"><svg viewBox="0 0 395.52 161.0588109657703" height="161.0588109657703" width="395.52"><g><svg viewBox="0 0 397.4975999999999 161.86410502059914" height="161.0588109657703" width="395.52"><g><rect width="397.4975999999999" height="5.076830946241722" x="0" y="87.20114548906156" fill="black" opacity="1" stroke-width="0" stroke="transparent" fill-opacity="1" class="rect-yte-0" rx="1%" id="SvgjsRect1183" data-palette-color="url(#249ab482-ece1-4e9e-939c-9d343fa85f1d)"></rect></g><g transform="matrix(1,0,0,1,0.9887999999999693,105.56810980242821)"><svg viewBox="0 0 395.52 56.295995218170944" height="56.295995218170944" width="395.52"><g id="SvgjsG1182"><svg viewBox="0 0 395.52 56.295995218170944" height="56.295995218170944" width="395.52" id="SvgjsSvg1181"><g><svg viewBox="0 0 395.52 56.295995218170944" height="56.295995218170944" width="395.52"><g transform="matrix(1,0,0,1,0,0)"><svg width="395.52" viewBox="4 -36.01 326.74 46.51" height="56.295995218170944" data-palette-color="url(#ce143cb6-bd39-496d-a9da-97e9bd995673)"><path d="M26.49-14.99L9.5-14.99Q8.47-14.99 7.56-15.39 6.64-15.8 5.96-16.47 5.27-17.14 4.88-18.05 4.49-18.97 4.49-20L4.49-20 4.49-30Q4.49-31.03 4.88-31.95 5.27-32.86 5.96-33.53 6.64-34.2 7.56-34.61 8.47-35.01 9.5-35.01L9.5-35.01 26.49-35.01Q27.51-35.01 28.43-34.61 29.35-34.2 30.03-33.53 30.71-32.86 31.1-31.95 31.49-31.03 31.49-30L31.49-30 31.49-25.49 26.49-25.49 26.49-30 9.5-30 9.5-20 26.49-20Q27.51-20 28.43-19.6 29.35-19.21 30.03-18.53 30.71-17.85 31.1-16.93 31.49-16.02 31.49-14.99L31.49-14.99 31.49-5Q31.49-3.98 31.1-3.06 30.71-2.15 30.03-1.46 29.35-0.78 28.43-0.39 27.51 0 26.49 0L26.49 0 9.01 0Q7.98 0 7.07-0.39 6.15-0.78 5.47-1.46 4.79-2.15 4.39-3.06 4-3.98 4-5L4-5 4-9.5 9.01-9.5 9.01-5 26.49-5 26.49-14.99ZM63.01-21.19L63.01-4.81Q63.01-3.81 62.63-2.93 62.25-2.05 61.61-1.4 60.96-0.76 60.08-0.38 59.2 0 58.2 0L58.2 0 44.8 0 44.8 10.5 40.01 10.5 40.01-26 44.8-26 44.8-21.61Q44.87-22.53 45.29-23.33 45.7-24.12 46.34-24.72 46.97-25.32 47.81-25.66 48.65-26 49.61-26L49.61-26 58.2-26Q59.2-26 60.08-25.62 60.96-25.24 61.61-24.6 62.25-23.95 62.63-23.07 63.01-22.19 63.01-21.19L63.01-21.19ZM44.8-4.81L58.2-4.81 58.2-21.19 44.8-21.19 44.8-4.81ZM93.01-21.19L93.01-10.55 75.8-10.55 75.8-4.81 93.01-4.81 93.01 0 75.8 0Q74.82 0 73.95-0.38 73.07-0.76 72.42-1.4 71.77-2.05 71.39-2.93 71.02-3.81 71.02-4.81L71.02-4.81 71.02-21.19Q71.02-22.19 71.39-23.07 71.77-23.95 72.42-24.6 73.07-25.24 73.95-25.62 74.82-26 75.8-26L75.8-26 88.2-26Q89.2-26 90.08-25.62 90.96-25.24 91.61-24.6 92.26-23.95 92.63-23.07 93.01-22.19 93.01-21.19L93.01-21.19ZM88.2-21.19L75.8-21.19 75.8-15.36 88.2-15.36 88.2-21.19ZM123.01-21.19L123.01-10.55 105.8-10.55 105.8-4.81 123.01-4.81 123.01 0 105.8 0Q104.83 0 103.95-0.38 103.07-0.76 102.42-1.4 101.77-2.05 101.4-2.93 101.02-3.81 101.02-4.81L101.02-4.81 101.02-21.19Q101.02-22.19 101.4-23.07 101.77-23.95 102.42-24.6 103.07-25.24 103.95-25.62 104.83-26 105.8-26L105.8-26 118.21-26Q119.21-26 120.09-25.62 120.96-25.24 121.61-24.6 122.26-23.95 122.64-23.07 123.01-22.19 123.01-21.19L123.01-21.19ZM118.21-21.19L105.8-21.19 105.8-15.36 118.21-15.36 118.21-21.19ZM131.02-4.81L131.02-21.19Q131.02-22.19 131.4-23.07 131.78-23.95 132.42-24.6 133.07-25.24 133.95-25.62 134.83-26 135.81-26L135.81-26 149.21-26 149.21-36.01 154.02-36.01 154.02 0 149.21 0 149.21-4.39Q149.14-3.49 148.72-2.69 148.31-1.88 147.66-1.28 147.01-0.68 146.18-0.34 145.35 0 144.42 0L144.42 0 135.81 0Q134.83 0 133.95-0.38 133.07-0.76 132.42-1.4 131.78-2.05 131.4-2.93 131.02-3.81 131.02-4.81L131.02-4.81ZM135.81-21.19L135.81-4.81 149.21-4.81 149.21-21.19 135.81-21.19ZM184.51-21.19L184.51-4.81Q184.51-3.81 184.13-2.93 183.75-2.05 183.11-1.4 182.46-0.76 181.59-0.38 180.72 0 179.72 0L179.72 0 166.81 0Q165.83 0 164.95-0.38 164.07-0.76 163.43-1.4 162.78-2.05 162.4-2.93 162.02-3.81 162.02-4.81L162.02-4.81 162.02-21.19Q162.02-22.19 162.4-23.07 162.78-23.95 163.43-24.6 164.07-25.24 164.95-25.62 165.83-26 166.81-26L166.81-26 179.72-26Q180.72-26 181.59-25.62 182.46-25.24 183.11-24.6 183.75-23.95 184.13-23.07 184.51-22.19 184.51-21.19L184.51-21.19ZM179.72-21.19L166.81-21.19 166.81-4.81 179.72-4.81 179.72-21.19ZM190-30L190-35.01 218-35.01 218-30 206.5-30 206.5 0 201.5 0 201.5-30 190-30ZM223.76-26L228.57-26 228.57 0 223.76 0 223.76-26ZM223.52-31.01L223.52-36.01 228.82-36.01 228.82-31.01 223.52-31.01ZM268.41-21.19L257.43-21.19 257.43 0 252.62 0 252.62-21.19 241.61-21.19 241.61 0 236.82 0 236.82-26 241.61-26 241.61-21.41Q241.65-22.36 242.05-23.21 242.44-24.05 243.08-24.67 243.73-25.29 244.58-25.65 245.44-26 246.42-26L246.42-26 252.62-26Q253.57-26 254.42-25.65 255.28-25.29 255.94-24.67 256.6-24.05 257-23.21 257.4-22.36 257.43-21.41L257.43-21.41Q257.48-22.36 257.85-23.21 258.23-24.05 258.88-24.67 259.53-25.29 260.38-25.65 261.23-26 262.21-26L262.21-26 268.41-26Q269.41-26 270.29-25.62 271.17-25.24 271.82-24.6 272.47-23.95 272.84-23.07 273.22-22.19 273.22-21.19L273.22-21.19 273.22 0 268.41 0 268.41-21.19ZM303.22-21.19L303.22-10.55 286.01-10.55 286.01-4.81 303.22-4.81 303.22 0 286.01 0Q285.04 0 284.16-0.38 283.28-0.76 282.63-1.4 281.98-2.05 281.61-2.93 281.23-3.81 281.23-4.81L281.23-4.81 281.23-21.19Q281.23-22.19 281.61-23.07 281.98-23.95 282.63-24.6 283.28-25.24 284.16-25.62 285.04-26 286.01-26L286.01-26 298.42-26Q299.42-26 300.29-25.62 301.17-25.24 301.82-24.6 302.47-23.95 302.85-23.07 303.22-22.19 303.22-21.19L303.22-21.19ZM298.42-21.19L286.01-21.19 286.01-15.36 298.42-15.36 298.42-21.19ZM325.93-21.19L316.02-21.19 316.02 0 311.23 0 311.23-26 316.02-26 316.02-21.41Q316.06-22.36 316.45-23.21 316.85-24.05 317.49-24.67 318.14-25.29 318.99-25.65 319.85-26 320.82-26L320.82-26 325.93-26Q326.93-26 327.79-25.62 328.66-25.24 329.32-24.6 329.98-23.95 330.36-23.07 330.74-22.19 330.74-21.19L330.74-21.19 330.74-16.8 325.93-16.8 325.93-21.19Z" opacity="1" transform="matrix(1,0,0,1,0,0)" fill="black" class="wordmark-text-0" id="SvgjsPath1180"></path></svg></g></svg></g></svg></g></svg></g><g transform="matrix(1,0,0,1,143.44205180299042,0)"><svg viewBox="0 0 110.61349639401905 73.91101212193664" height="73.91101212193664" width="110.61349639401905"><g><svg xmlns="http://www.w3.org/2000/svg" xmlns:xlink="http://www.w3.org/1999/xlink" version="1.1" x="8" y="0" viewBox="5 14.846 90 70.307" enable-background="new 0 0 100 100" xml:space="preserve" height="73.91101212193664" width="94.61349639401905" class="icon-icon-0" data-fill-palette-color="accent" id="SvgjsSvg1179"><g fill="black"><path fill="black" d="M58.485 71.817H43.334C42.88 71.817 42.578 72.27 42.578 72.73V76.062C42.578 76.515 42.88 76.97 43.334 76.97H58.485C58.939 76.97 59.393 76.515 59.393 76.062V72.73C59.393 72.27 58.939 71.817 58.485 71.817"></path><path fill-rule="evenodd" clip-rule="evenodd" d="M49.545 53.636C46.363 53.787 43.939 56.365 44.091 59.544 44.242 62.729 46.968 65.152 50.151 64.999 53.333 64.85 55.757 62.276 55.605 59.091 55.605 58.032 55.304 57.123 54.697 56.215L69.242 38.029 52.576 54.242C51.667 53.787 50.757 53.485 49.545 53.636" fill="black"></path><path fill-rule="evenodd" clip-rule="evenodd" d="M58.485 70.151H43.334C41.969 70.151 40.759 71.361 40.759 72.73V76.062C40.759 77.574 41.969 78.638 43.334 78.638H58.485C60.001 78.638 61.061 77.574 61.061 76.062V72.73C61.061 71.361 60 70.151 58.485 70.151M59.393 76.061C59.393 76.514 58.939 76.969 58.485 76.969H43.334C42.88 76.969 42.578 76.514 42.578 76.061V72.73C42.578 72.27 42.88 71.817 43.334 71.817H58.485C58.939 71.817 59.393 72.27 59.393 72.73z" fill="black"></path><path fill-rule="evenodd" clip-rule="evenodd" d="M81.817 28.032C73.332 19.545 61.969 14.846 50 14.846 37.879 14.846 26.667 19.546 18.183 28.032 9.698 36.514 5 47.726 5 59.848 5 68.636 7.576 77.121 12.275 84.547 12.577 84.849 13.031 85.153 13.485 85.153 13.788 85.153 14.09 85 14.241 84.849 15.001 84.547 15.152 83.634 14.699 83.028 13.485 81.06 12.425 79.244 11.514 77.269L15.456 75.606C16.06 75.304 16.514 74.547 16.212 73.789 15.909 73.032 15.001 72.73 14.395 73.032L10.455 74.698C8.79 70.453 7.88 65.907 7.727 61.216H11.971C12.727 61.216 13.333 60.603 13.333 59.848 13.333 59.091 12.728 58.333 11.971 58.333H7.727C7.879 53.787 8.79 49.24 10.456 45.003L14.396 46.515C14.547 46.666 14.699 46.666 14.849 46.666 15.457 46.666 15.91 46.366 16.213 45.758 16.515 45.154 16.061 44.246 15.457 43.937L11.515 42.425C13.334 38.181 15.91 34.396 19.092 30.909L22.123 33.943C22.425 34.245 22.728 34.396 23.186 34.396 23.487 34.396 23.791 34.245 24.095 33.943 24.7 33.337 24.7 32.575 24.095 31.969L21.215 28.942C24.548 25.759 28.334 23.185 32.579 21.364L34.09 25.3C34.394 25.758 34.85 26.06 35.455 26.06H35.909C36.666 25.758 36.971 24.847 36.666 24.243L35.151 20.303C39.392 18.635 43.938 17.729 48.636 17.578V21.82C48.636 22.577 49.242 23.184 50 23.184A1.36 1.36 0 0 0 51.364 21.82V17.578C56.06 17.729 60.605 18.635 64.848 20.303L63.182 24.243C62.88 24.847 63.334 25.758 63.939 26.06H64.545C64.998 26.06 65.606 25.758 65.758 25.3L67.423 21.362C71.515 23.183 75.454 25.758 78.788 28.94L75.908 31.967C75.303 32.573 75.303 33.335 75.908 33.941 76.059 34.243 76.517 34.394 76.819 34.394 77.274 34.394 77.575 34.243 77.88 33.941L80.757 30.907C83.94 34.394 86.516 38.178 88.485 42.423L84.545 43.935C83.788 44.244 83.484 45.152 83.788 45.756 83.94 46.364 84.545 46.664 85.15 46.664 85.304 46.664 85.455 46.664 85.608 46.513L89.546 45.001A44.3 44.3 0 0 1 92.121 58.482H88.032C87.121 58.482 86.516 59.088 86.516 59.846 86.516 60.601 87.121 61.214 88.032 61.214H92.121A44.3 44.3 0 0 1 89.546 74.695L85.608 73.029C84.848 72.727 84.09 73.029 83.788 73.786S83.788 75.301 84.545 75.603L88.485 77.266C87.574 79.241 86.516 81.208 85.305 83.025 84.848 83.631 84.998 84.544 85.608 84.846 86.364 85.301 87.122 85.15 87.575 84.544 92.424 77.121 95 68.636 95 59.848 95 47.726 90.301 36.514 81.817 28.032" fill="black"></path></g></svg></g></svg></g><g><rect width="66.90893180299047" height="5.076830946241722" y="67.83418117569491" x="254.05554819700947" fill="black"></rect><rect width="66.90893180299047" height="5.076830946241722" y="67.83418117569491" x="76.53311999999997" fill="black"></rect></g></svg></g><defs><mask></mask></defs></svg><rect width="395.52" height="161.0588109657703" fill="black" stroke="none" visibility="hidden"></rect></g></mask><mask><g id="SvgjsG1178"><svg viewBox="0 0 395.52 161.0588109657703" height="161.0588109657703" width="395.52"><g><svg viewBox="0 0 397.4975999999999 161.86410502059914" height="161.0588109657703" width="395.52"><g><rect width="397.4975999999999" height="5.076830946241722" x="0" y="87.20114548906156" fill="black" opacity="1" stroke-width="0" stroke="transparent" fill-opacity="1" class="rect-yte-0" rx="1%" id="SvgjsRect1177" data-palette-color="url(#249ab482-ece1-4e9e-939c-9d343fa85f1d)"></rect></g><g transform="matrix(1,0,0,1,0.9887999999999693,105.56810980242821)"><svg viewBox="0 0 395.52 56.295995218170944" height="56.295995218170944" width="395.52"><g id="SvgjsG1176"><svg viewBox="0 0 395.52 56.295995218170944" height="56.295995218170944" width="395.52" id="SvgjsSvg1175"><g><svg viewBox="0 0 395.52 56.295995218170944" height="56.295995218170944" width="395.52"><g transform="matrix(1,0,0,1,0,0)"><svg width="395.52" viewBox="4 -36.01 326.74 46.51" height="56.295995218170944" data-palette-color="url(#ce143cb6-bd39-496d-a9da-97e9bd995673)"></svg></g></svg></g></svg></g></svg></g><g transform="matrix(1,0,0,1,143.44205180299042,0)"><svg viewBox="0 0 110.61349639401905 73.91101212193664" height="73.91101212193664" width="110.61349639401905"><g><svg xmlns="http://www.w3.org/2000/svg" xmlns:xlink="http://www.w3.org/1999/xlink" version="1.1" x="8" y="0" viewBox="5 14.846 90 70.307" enable-background="new 0 0 100 100" xml:space="preserve" height="73.91101212193664" width="94.61349639401905" class="icon-icon-0" data-fill-palette-color="accent" id="SvgjsSvg1174"><g fill="black"><path fill="black" d="M58.485 71.817H43.334C42.88 71.817 42.578 72.27 42.578 72.73V76.062C42.578 76.515 42.88 76.97 43.334 76.97H58.485C58.939 76.97 59.393 76.515 59.393 76.062V72.73C59.393 72.27 58.939 71.817 58.485 71.817"></path><path fill-rule="evenodd" clip-rule="evenodd" d="M49.545 53.636C46.363 53.787 43.939 56.365 44.091 59.544 44.242 62.729 46.968 65.152 50.151 64.999 53.333 64.85 55.757 62.276 55.605 59.091 55.605 58.032 55.304 57.123 54.697 56.215L69.242 38.029 52.576 54.242C51.667 53.787 50.757 53.485 49.545 53.636" fill="black"></path><path fill-rule="evenodd" clip-rule="evenodd" d="M58.485 70.151H43.334C41.969 70.151 40.759 71.361 40.759 72.73V76.062C40.759 77.574 41.969 78.638 43.334 78.638H58.485C60.001 78.638 61.061 77.574 61.061 76.062V72.73C61.061 71.361 60 70.151 58.485 70.151M59.393 76.061C59.393 76.514 58.939 76.969 58.485 76.969H43.334C42.88 76.969 42.578 76.514 42.578 76.061V72.73C42.578 72.27 42.88 71.817 43.334 71.817H58.485C58.939 71.817 59.393 72.27 59.393 72.73z" fill="black"></path><path fill-rule="evenodd" clip-rule="evenodd" d="M81.817 28.032C73.332 19.545 61.969 14.846 50 14.846 37.879 14.846 26.667 19.546 18.183 28.032 9.698 36.514 5 47.726 5 59.848 5 68.636 7.576 77.121 12.275 84.547 12.577 84.849 13.031 85.153 13.485 85.153 13.788 85.153 14.09 85 14.241 84.849 15.001 84.547 15.152 83.634 14.699 83.028 13.485 81.06 12.425 79.244 11.514 77.269L15.456 75.606C16.06 75.304 16.514 74.547 16.212 73.789 15.909 73.032 15.001 72.73 14.395 73.032L10.455 74.698C8.79 70.453 7.88 65.907 7.727 61.216H11.971C12.727 61.216 13.333 60.603 13.333 59.848 13.333 59.091 12.728 58.333 11.971 58.333H7.727C7.879 53.787 8.79 49.24 10.456 45.003L14.396 46.515C14.547 46.666 14.699 46.666 14.849 46.666 15.457 46.666 15.91 46.366 16.213 45.758 16.515 45.154 16.061 44.246 15.457 43.937L11.515 42.425C13.334 38.181 15.91 34.396 19.092 30.909L22.123 33.943C22.425 34.245 22.728 34.396 23.186 34.396 23.487 34.396 23.791 34.245 24.095 33.943 24.7 33.337 24.7 32.575 24.095 31.969L21.215 28.942C24.548 25.759 28.334 23.185 32.579 21.364L34.09 25.3C34.394 25.758 34.85 26.06 35.455 26.06H35.909C36.666 25.758 36.971 24.847 36.666 24.243L35.151 20.303C39.392 18.635 43.938 17.729 48.636 17.578V21.82C48.636 22.577 49.242 23.184 50 23.184A1.36 1.36 0 0 0 51.364 21.82V17.578C56.06 17.729 60.605 18.635 64.848 20.303L63.182 24.243C62.88 24.847 63.334 25.758 63.939 26.06H64.545C64.998 26.06 65.606 25.758 65.758 25.3L67.423 21.362C71.515 23.183 75.454 25.758 78.788 28.94L75.908 31.967C75.303 32.573 75.303 33.335 75.908 33.941 76.059 34.243 76.517 34.394 76.819 34.394 77.274 34.394 77.575 34.243 77.88 33.941L80.757 30.907C83.94 34.394 86.516 38.178 88.485 42.423L84.545 43.935C83.788 44.244 83.484 45.152 83.788 45.756 83.94 46.364 84.545 46.664 85.15 46.664 85.304 46.664 85.455 46.664 85.608 46.513L89.546 45.001A44.3 44.3 0 0 1 92.121 58.482H88.032C87.121 58.482 86.516 59.088 86.516 59.846 86.516 60.601 87.121 61.214 88.032 61.214H92.121A44.3 44.3 0 0 1 89.546 74.695L85.608 73.029C84.848 72.727 84.09 73.029 83.788 73.786S83.788 75.301 84.545 75.603L88.485 77.266C87.574 79.241 86.516 81.208 85.305 83.025 84.848 83.631 84.998 84.544 85.608 84.846 86.364 85.301 87.122 85.15 87.575 84.544 92.424 77.121 95 68.636 95 59.848 95 47.726 90.301 36.514 81.817 28.032" fill="black"></path></g></svg></g></svg></g><g><rect width="66.90893180299047" height="5.076830946241722" y="67.83418117569491" x="254.05554819700947" fill="black"></rect><rect width="66.90893180299047" height="5.076830946241722" y="67.83418117569491" x="76.53311999999997" fill="black"></rect></g></svg></g><defs><mask></mask></defs><mask><g id="SvgjsG1173"><svg viewBox="0 0 395.52 161.0588109657703" height="161.0588109657703" width="395.52"><g><svg viewBox="0 0 397.4975999999999 161.86410502059914" height="161.0588109657703" width="395.52"><g><rect width="397.4975999999999" height="5.076830946241722" x="0" y="87.20114548906156" fill="black" opacity="1" stroke-width="0" stroke="transparent" fill-opacity="1" class="rect-yte-0" rx="1%" id="SvgjsRect1172" data-palette-color="url(#249ab482-ece1-4e9e-939c-9d343fa85f1d)"></rect></g><g transform="matrix(1,0,0,1,0.9887999999999693,105.56810980242821)"><svg viewBox="0 0 395.52 56.295995218170944" height="56.295995218170944" width="395.52"><g id="SvgjsG1171"><svg viewBox="0 0 395.52 56.295995218170944" height="56.295995218170944" width="395.52" id="SvgjsSvg1170"><g><svg viewBox="0 0 395.52 56.295995218170944" height="56.295995218170944" width="395.52"><g transform="matrix(1,0,0,1,0,0)"><svg width="395.52" viewBox="4 -36.01 326.74 46.51" height="56.295995218170944" data-palette-color="url(#ce143cb6-bd39-496d-a9da-97e9bd995673)"><path d="M26.49-14.99L9.5-14.99Q8.47-14.99 7.56-15.39 6.64-15.8 5.96-16.47 5.27-17.14 4.88-18.05 4.49-18.97 4.49-20L4.49-20 4.49-30Q4.49-31.03 4.88-31.95 5.27-32.86 5.96-33.53 6.64-34.2 7.56-34.61 8.47-35.01 9.5-35.01L9.5-35.01 26.49-35.01Q27.51-35.01 28.43-34.61 29.35-34.2 30.03-33.53 30.71-32.86 31.1-31.95 31.49-31.03 31.49-30L31.49-30 31.49-25.49 26.49-25.49 26.49-30 9.5-30 9.5-20 26.49-20Q27.51-20 28.43-19.6 29.35-19.21 30.03-18.53 30.71-17.85 31.1-16.93 31.49-16.02 31.49-14.99L31.49-14.99 31.49-5Q31.49-3.98 31.1-3.06 30.71-2.15 30.03-1.46 29.35-0.78 28.43-0.39 27.51 0 26.49 0L26.49 0 9.01 0Q7.98 0 7.07-0.39 6.15-0.78 5.47-1.46 4.79-2.15 4.39-3.06 4-3.98 4-5L4-5 4-9.5 9.01-9.5 9.01-5 26.49-5 26.49-14.99ZM63.01-21.19L63.01-4.81Q63.01-3.81 62.63-2.93 62.25-2.05 61.61-1.4 60.96-0.76 60.08-0.38 59.2 0 58.2 0L58.2 0 44.8 0 44.8 10.5 40.01 10.5 40.01-26 44.8-26 44.8-21.61Q44.87-22.53 45.29-23.33 45.7-24.12 46.34-24.72 46.97-25.32 47.81-25.66 48.65-26 49.61-26L49.61-26 58.2-26Q59.2-26 60.08-25.62 60.96-25.24 61.61-24.6 62.25-23.95 62.63-23.07 63.01-22.19 63.01-21.19L63.01-21.19ZM44.8-4.81L58.2-4.81 58.2-21.19 44.8-21.19 44.8-4.81ZM93.01-21.19L93.01-10.55 75.8-10.55 75.8-4.81 93.01-4.81 93.01 0 75.8 0Q74.82 0 73.95-0.38 73.07-0.76 72.42-1.4 71.77-2.05 71.39-2.93 71.02-3.81 71.02-4.81L71.02-4.81 71.02-21.19Q71.02-22.19 71.39-23.07 71.77-23.95 72.42-24.6 73.07-25.24 73.95-25.62 74.82-26 75.8-26L75.8-26 88.2-26Q89.2-26 90.08-25.62 90.96-25.24 91.61-24.6 92.26-23.95 92.63-23.07 93.01-22.19 93.01-21.19L93.01-21.19ZM88.2-21.19L75.8-21.19 75.8-15.36 88.2-15.36 88.2-21.19ZM123.01-21.19L123.01-10.55 105.8-10.55 105.8-4.81 123.01-4.81 123.01 0 105.8 0Q104.83 0 103.95-0.38 103.07-0.76 102.42-1.4 101.77-2.05 101.4-2.93 101.02-3.81 101.02-4.81L101.02-4.81 101.02-21.19Q101.02-22.19 101.4-23.07 101.77-23.95 102.42-24.6 103.07-25.24 103.95-25.62 104.83-26 105.8-26L105.8-26 118.21-26Q119.21-26 120.09-25.62 120.96-25.24 121.61-24.6 122.26-23.95 122.64-23.07 123.01-22.19 123.01-21.19L123.01-21.19ZM118.21-21.19L105.8-21.19 105.8-15.36 118.21-15.36 118.21-21.19ZM131.02-4.81L131.02-21.19Q131.02-22.19 131.4-23.07 131.78-23.95 132.42-24.6 133.07-25.24 133.95-25.62 134.83-26 135.81-26L135.81-26 149.21-26 149.21-36.01 154.02-36.01 154.02 0 149.21 0 149.21-4.39Q149.14-3.49 148.72-2.69 148.31-1.88 147.66-1.28 147.01-0.68 146.18-0.34 145.35 0 144.42 0L144.42 0 135.81 0Q134.83 0 133.95-0.38 133.07-0.76 132.42-1.4 131.78-2.05 131.4-2.93 131.02-3.81 131.02-4.81L131.02-4.81ZM135.81-21.19L135.81-4.81 149.21-4.81 149.21-21.19 135.81-21.19ZM184.51-21.19L184.51-4.81Q184.51-3.81 184.13-2.93 183.75-2.05 183.11-1.4 182.46-0.76 181.59-0.38 180.72 0 179.72 0L179.72 0 166.81 0Q165.83 0 164.95-0.38 164.07-0.76 163.43-1.4 162.78-2.05 162.4-2.93 162.02-3.81 162.02-4.81L162.02-4.81 162.02-21.19Q162.02-22.19 162.4-23.07 162.78-23.95 163.43-24.6 164.07-25.24 164.95-25.62 165.83-26 166.81-26L166.81-26 179.72-26Q180.72-26 181.59-25.62 182.46-25.24 183.11-24.6 183.75-23.95 184.13-23.07 184.51-22.19 184.51-21.19L184.51-21.19ZM179.72-21.19L166.81-21.19 166.81-4.81 179.72-4.81 179.72-21.19ZM190-30L190-35.01 218-35.01 218-30 206.5-30 206.5 0 201.5 0 201.5-30 190-30ZM223.76-26L228.57-26 228.57 0 223.76 0 223.76-26ZM223.52-31.01L223.52-36.01 228.82-36.01 228.82-31.01 223.52-31.01ZM268.41-21.19L257.43-21.19 257.43 0 252.62 0 252.62-21.19 241.61-21.19 241.61 0 236.82 0 236.82-26 241.61-26 241.61-21.41Q241.65-22.36 242.05-23.21 242.44-24.05 243.08-24.67 243.73-25.29 244.58-25.65 245.44-26 246.42-26L246.42-26 252.62-26Q253.57-26 254.42-25.65 255.28-25.29 255.94-24.67 256.6-24.05 257-23.21 257.4-22.36 257.43-21.41L257.43-21.41Q257.48-22.36 257.85-23.21 258.23-24.05 258.88-24.67 259.53-25.29 260.38-25.65 261.23-26 262.21-26L262.21-26 268.41-26Q269.41-26 270.29-25.62 271.17-25.24 271.82-24.6 272.47-23.95 272.84-23.07 273.22-22.19 273.22-21.19L273.22-21.19 273.22 0 268.41 0 268.41-21.19ZM303.22-21.19L303.22-10.55 286.01-10.55 286.01-4.81 303.22-4.81 303.22 0 286.01 0Q285.04 0 284.16-0.38 283.28-0.76 282.63-1.4 281.98-2.05 281.61-2.93 281.23-3.81 281.23-4.81L281.23-4.81 281.23-21.19Q281.23-22.19 281.61-23.07 281.98-23.95 282.63-24.6 283.28-25.24 284.16-25.62 285.04-26 286.01-26L286.01-26 298.42-26Q299.42-26 300.29-25.62 301.17-25.24 301.82-24.6 302.47-23.95 302.85-23.07 303.22-22.19 303.22-21.19L303.22-21.19ZM298.42-21.19L286.01-21.19 286.01-15.36 298.42-15.36 298.42-21.19ZM325.93-21.19L316.02-21.19 316.02 0 311.23 0 311.23-26 316.02-26 316.02-21.41Q316.06-22.36 316.45-23.21 316.85-24.05 317.49-24.67 318.14-25.29 318.99-25.65 319.85-26 320.82-26L320.82-26 325.93-26Q326.93-26 327.79-25.62 328.66-25.24 329.32-24.6 329.98-23.95 330.36-23.07 330.74-22.19 330.74-21.19L330.74-21.19 330.74-16.8 325.93-16.8 325.93-21.19Z" opacity="1" transform="matrix(1,0,0,1,0,0)" fill="black" class="wordmark-text-0" id="SvgjsPath1169"></path></svg></g></svg></g></svg></g></svg></g><g transform="matrix(1,0,0,1,143.44205180299042,0)"><svg viewBox="0 0 110.61349639401905 73.91101212193664" height="73.91101212193664" width="110.61349639401905"><g><svg xmlns="http://www.w3.org/2000/svg" xmlns:xlink="http://www.w3.org/1999/xlink" version="1.1" x="8" y="0" viewBox="5 14.846 90 70.307" enable-background="new 0 0 100 100" xml:space="preserve" height="73.91101212193664" width="94.61349639401905" class="icon-icon-0" data-fill-palette-color="accent" id="SvgjsSvg1168"><g fill="black"><path fill="black" d="M58.485 71.817H43.334C42.88 71.817 42.578 72.27 42.578 72.73V76.062C42.578 76.515 42.88 76.97 43.334 76.97H58.485C58.939 76.97 59.393 76.515 59.393 76.062V72.73C59.393 72.27 58.939 71.817 58.485 71.817"></path><path fill-rule="evenodd" clip-rule="evenodd" d="M49.545 53.636C46.363 53.787 43.939 56.365 44.091 59.544 44.242 62.729 46.968 65.152 50.151 64.999 53.333 64.85 55.757 62.276 55.605 59.091 55.605 58.032 55.304 57.123 54.697 56.215L69.242 38.029 52.576 54.242C51.667 53.787 50.757 53.485 49.545 53.636" fill="black"></path><path fill-rule="evenodd" clip-rule="evenodd" d="M58.485 70.151H43.334C41.969 70.151 40.759 71.361 40.759 72.73V76.062C40.759 77.574 41.969 78.638 43.334 78.638H58.485C60.001 78.638 61.061 77.574 61.061 76.062V72.73C61.061 71.361 60 70.151 58.485 70.151M59.393 76.061C59.393 76.514 58.939 76.969 58.485 76.969H43.334C42.88 76.969 42.578 76.514 42.578 76.061V72.73C42.578 72.27 42.88 71.817 43.334 71.817H58.485C58.939 71.817 59.393 72.27 59.393 72.73z" fill="black"></path><path fill-rule="evenodd" clip-rule="evenodd" d="M81.817 28.032C73.332 19.545 61.969 14.846 50 14.846 37.879 14.846 26.667 19.546 18.183 28.032 9.698 36.514 5 47.726 5 59.848 5 68.636 7.576 77.121 12.275 84.547 12.577 84.849 13.031 85.153 13.485 85.153 13.788 85.153 14.09 85 14.241 84.849 15.001 84.547 15.152 83.634 14.699 83.028 13.485 81.06 12.425 79.244 11.514 77.269L15.456 75.606C16.06 75.304 16.514 74.547 16.212 73.789 15.909 73.032 15.001 72.73 14.395 73.032L10.455 74.698C8.79 70.453 7.88 65.907 7.727 61.216H11.971C12.727 61.216 13.333 60.603 13.333 59.848 13.333 59.091 12.728 58.333 11.971 58.333H7.727C7.879 53.787 8.79 49.24 10.456 45.003L14.396 46.515C14.547 46.666 14.699 46.666 14.849 46.666 15.457 46.666 15.91 46.366 16.213 45.758 16.515 45.154 16.061 44.246 15.457 43.937L11.515 42.425C13.334 38.181 15.91 34.396 19.092 30.909L22.123 33.943C22.425 34.245 22.728 34.396 23.186 34.396 23.487 34.396 23.791 34.245 24.095 33.943 24.7 33.337 24.7 32.575 24.095 31.969L21.215 28.942C24.548 25.759 28.334 23.185 32.579 21.364L34.09 25.3C34.394 25.758 34.85 26.06 35.455 26.06H35.909C36.666 25.758 36.971 24.847 36.666 24.243L35.151 20.303C39.392 18.635 43.938 17.729 48.636 17.578V21.82C48.636 22.577 49.242 23.184 50 23.184A1.36 1.36 0 0 0 51.364 21.82V17.578C56.06 17.729 60.605 18.635 64.848 20.303L63.182 24.243C62.88 24.847 63.334 25.758 63.939 26.06H64.545C64.998 26.06 65.606 25.758 65.758 25.3L67.423 21.362C71.515 23.183 75.454 25.758 78.788 28.94L75.908 31.967C75.303 32.573 75.303 33.335 75.908 33.941 76.059 34.243 76.517 34.394 76.819 34.394 77.274 34.394 77.575 34.243 77.88 33.941L80.757 30.907C83.94 34.394 86.516 38.178 88.485 42.423L84.545 43.935C83.788 44.244 83.484 45.152 83.788 45.756 83.94 46.364 84.545 46.664 85.15 46.664 85.304 46.664 85.455 46.664 85.608 46.513L89.546 45.001A44.3 44.3 0 0 1 92.121 58.482H88.032C87.121 58.482 86.516 59.088 86.516 59.846 86.516 60.601 87.121 61.214 88.032 61.214H92.121A44.3 44.3 0 0 1 89.546 74.695L85.608 73.029C84.848 72.727 84.09 73.029 83.788 73.786S83.788 75.301 84.545 75.603L88.485 77.266C87.574 79.241 86.516 81.208 85.305 83.025 84.848 83.631 84.998 84.544 85.608 84.846 86.364 85.301 87.122 85.15 87.575 84.544 92.424 77.121 95 68.636 95 59.848 95 47.726 90.301 36.514 81.817 28.032" fill="black"></path></g></svg></g></svg></g><g><rect width="66.90893180299047" height="5.076830946241722" y="67.83418117569491" x="254.05554819700947" fill="black"></rect><rect width="66.90893180299047" height="5.076830946241722" y="67.83418117569491" x="76.53311999999997" fill="black"></rect></g></svg></g><defs><mask></mask></defs></svg><rect width="395.52" height="161.0588109657703" fill="black" stroke="none" visibility="hidden"></rect></g></mask></svg><rect width="395.52" height="161.0588109657703" fill="black" stroke="none" visibility="hidden"></rect></g></mask></svg><rect width="395.52" height="161.0588109657703" fill="black" stroke="none" visibility="hidden"></rect></g></mask><linearGradient x1="0.054" x2="0.941" y1="0.5" y2="0.5" id="b7ad0d1a-f94c-42b8-8d4c-5fb71155b7f8"><stop stop-color="#864d25" offset="0"></stop><stop stop-color="#f1c4b3" offset="0.498"></stop><stop stop-color="#864d25" offset="1"></stop></linearGradient><rect width="395.52" height="161.0588109657703" fill="url(#b7ad0d1a-f94c-42b8-8d4c-5fb71155b7f8)" mask="url(#69e19ae1-7f7f-4dae-9ce8-0a6d8067d12b)" data-fill-palette-color="accent"></rect></svg><rect width="395.52" height="161.0588109657703" fill="none" stroke="none" visibility="hidden"></rect></g></svg></g></svg>